# AST/ASF file generated using VICON BodyLanguage
# -----------------------------------------------
:version 1.10
:name VICON
:units
  mass 1.0
  length 0.45
  angle deg
:documentation
   .ast/.asf automatically generated from VICON data using
   VICON BodyBuilder and BodyLanguage model FoxedUp or BRILLIANT.MOD
:root
   order TX TY TZ RX RY RZ
   axis XYZ
   position 0 0 0  
   orientation 0 0 0 
:bonedata
  begin
     id 1 
     name lhipjoint
     direction 0.541323 -0.757556 0.364798 
     length 2.47576 
     axis 0 0 0  XYZ
  end
  begin
     id 2 
     name lfemur
     direction 0.34202 -0.939693 0  
     length 7.46493  
     axis 0 0 20  XYZ
    dof rx ry rz
    limits (-160.0 20.0)
           (-70.0 70.0)
           (-60.0 70.0)
  end
  begin
     id 3 
     name ltibia
     direction 0.34202 -0.939693 0   
     length 7.73805   
     axis 0 0 20   XYZ
    dof rx
    limits (-10.0 170.0)
  end
  begin
     id 4 
     name lfoot
     direction 0.107174 -0.294458 0.949636   
     length 2.25864   
     axis -90 7.62852e-016 20   XYZ
    dof rx rz
    limits (-45.0 90.0)
           (-70.0 20.0)
  end
  begin
     id 5 
     name ltoes
     direction 1.53606e-011 -4.21934e-011 1   
     length 1.12451   
     axis -90 7.62852e-016 20   XYZ
    dof rx
    limits (-90.0 20.0)
  end
  begin
     id 6 
     name rhipjoint
     direction -0.524745 -0.766967 0.36933   
     length 2.44538  
     axis 0 0 0  XYZ 
  end
  begin
     id 7 
     name rfemur
     direction -0.34202 -0.939693 0   
     length 7.61604   
     axis 0 0 -20   XYZ
    dof rx ry rz
    limits (-160.0 20.0)
           (-70.0 70.0)
           (-70.0 60.0)
  end
  begin
     id 8 
     name rtibia
     direction -0.34202 -0.939693 0   
     length 7.61056   
     axis 0 0 -20   XYZ
    dof rx
    limits (-10.0 170.0)
 end
 begin
     id 9 
     name rfoot
     direction -0.12616 -0.346623 0.929482   
     length 2.46372  
     axis -90 -7.62852e-016 -20   XYZ
    dof rx rz
    limits (-45.0 90.0)
           (-20.0 70.0)
  end
  begin
     id 10 
     name rtoes
     direction -1.53531e-011 -4.22004e-011 1   
     length 1.21611   
     axis -90 -7.62852e-016 -20   XYZ
    dof rx
    limits (-90.0 20.0)
  end
  begin
     id 11 
     name lowerback
     direction -0.000778023 0.997293 -0.0735223   
     length 2.06139   
     axis 0 0 0   XYZ
    dof rx ry rz
    limits (-20.0 45.0)
           (-30.0 30.0)
           (-30.0 30.0)
  end
  begin
     id 12 
     name upperback
     direction 0.0222598 0.999722 -0.0078355   
     length 2.06383   
     axis 0 0 0   XYZ
    dof rx ry rz
    limits (-20.0 45.0)
           (-30.0 30.0)
           (-30.0 30.0)
  end
  begin
     id 13 
     name thorax
     direction 0.0219654 0.999405 0.0265994   
     length 2.07163   
     axis 0 0 0   XYZ
    dof rx ry rz
    limits (-20.0 45.0)
           (-30.0 30.0)
           (-30.0 30.0)
  end
  begin
     id 14 
     name lowerneck
     direction 0.0213282 0.988147 0.15202   
     length 1.75969   
     axis 0 0 0   XYZ
    dof rx ry rz
    limits (-20.0 45.0)
           (-30.0 30.0)
           (-30.0 30.0)
  end
  begin
     id 15 
     name upperneck
     direction -0.0546456 0.982624 -0.177379   
     length 1.79244   
     axis 0 0 0   XYZ
    dof rx ry rz
    limits (-20.0 45.0)
           (-30.0 30.0)
           (-30.0 30.0)
  end
  begin
     id 16
     name head
     direction -0.0199987 0.996855 -0.076686  
     length 1.80555  
     axis 0 0 0   XYZ
    dof rx ry rz
    limits (-20.0 45.0)
           (-30.0 30.0)
           (-30.0 30.0)
  end
  begin
     id 17 
     name lclavicle
     direction 0.929565 0.363219 -0.063096  
     length 3.55722  
     axis 0 0 0   XYZ
    dof ry rz
    limits (-20.0 10.0)
           (0.0 20.0)
  end
  begin
     id 18 
     name lhumerus
     direction 1 -4.48993e-011 -2.36203e-027   
     length 4.92785   
     axis 180 -30 -90   XYZ
    dof rx ry rz
    limits (-60.0 90.0)
           (-90.0 90.0)
           (-90.0 90.0)
  end
  begin
     id 19
     name lradius
     direction 1 -4.48947e-011 2.02997e-027   
     length 3.44052   
     axis 180 -30 -90   XYZ
    dof rx
    limits (-10.0 170.0)
  end
  begin
     id 20
     name lwrist
     direction 1 -4.48962e-011 1.45991e-027   
     length 1.72026   
     axis 1.49639e-024 90 90   XYZ
    dof ry
    limits (-180.0 0.0)
 end
  begin
     id 21 
     name lhand
     direction 1 -4.48984e-011 2.91906e-027   
     length 0.654326   
     axis -1.863e-015 90 90   XYZ
    dof rx rz
    limits (-90.0 90.0)
           (-45.0 45.0)
  end
  begin
     id 22 
     name lfingers
     direction 1 -4.48961e-011 5.83968e-027   
     length 0.527534   
     axis -3.72598e-015 90 90   XYZ
    dof rx
    limits (0.0 90.0)
  end
  begin
     id 23
     name lthumb
     direction 0.707107 -6.34963e-011 0.707107   
     length 0.757437   
     axis -90 45 -6.68868e-015   XYZ
    dof rx rz
    limits (-45.0 45.0)
           (-45.0 45.0)
  end
  begin
     id 24 
     name rclavicle
     direction -0.902944 0.422599 -0.0781198   
     length 3.54432  
     axis 0 0 0   XYZ 
    dof ry rz
    limits (-10.0 20.0)
           (-20.0 0.0)
  end
  begin
     id 25 
     name rhumerus
     direction -1 -4.48953e-011 -4.75835e-028  
     length 5.09181   
     axis 180 30 90   XYZ
    dof rx ry rz
    limits (-90.0 60.0)
           (-90.0 90.0)
           (-90.0 90.0)
  end
  begin
     id 26 
     name rradius
     direction -1 -4.48986e-011 -3.25889e-027   
     length 3.49865   
     axis 180 30 90   XYZ
    dof rx
    limits (-10.0 170.0)
  end
  begin
     id 27 
     name rwrist
     direction -1 -4.48963e-011 1.45989e-027   
     length 1.74933   
     axis 1.49639e-024 -90 -90   XYZ
    dof ry
    limits (-180.0 0.0)
  end
  begin
     id 28
     name rhand
     direction -1 -4.49003e-011 2.91844e-027   
     length 0.66641   
     axis -1.863e-015 -90 -90   XYZ
    dof rx rz
    limits (-90.0 90.0)
           (-45.0 45.0)
  end
  begin
     id 29
     name rfingers
     direction -1 -4.48973e-011 5.83886e-027   
     length 0.537277   
     axis -3.72598e-015 -90 -90   XYZ
    dof rx
    limits (0.0 90.0)
  end
  begin
     id 30
     name rthumb
     direction -0.707107 -6.34976e-011 0.707107   
     length 0.771425   
     axis -90 -45 6.68868e-015   XYZ
    dof rx rz
    limits (-45.0 45.0)
           (-45.0 45.0)
  end
:hierarchy
  begin
    root lhipjoint rhipjoint lowerback
    lhipjoint lfemur
    lfemur ltibia
    ltibia lfoot
    lfoot ltoes
    rhipjoint rfemur
    rfemur rtibia
    rtibia rfoot
    rfoot rtoes
    lowerback upperback
    upperback thorax
    thorax lowerneck lclavicle rclavicle
    lowerneck upperneck
    upperneck head
    lclavicle lhumerus
    lhumerus lradius
    lradius lwrist
    lwrist lhand lthumb
    lhand lfingers
    rclavicle rhumerus
    rhumerus rradius
    rradius rwrist
    rwrist rhand rthumb
    rhand rfingers
  end

#!OML:ASF H:\LiuWeirdWalks\Patient Classification 1\Patient 1\Session 1\male.ASF
:FULLY-SPECIFIED
:DEGREES
60
root 1.57197 17.8871 -28.3321 -1.14289 6.86934 -1.78438
lowerback 9.30755 -4.45383 -10.3578
upperback 0.580307 -6.81323 5.45667
thorax -2.69934 -3.2969 12.4745
lowerneck -24.4445 4.39439 3.92471
upperneck 30.0278 7.50977 -7.59932
head 15.05 2.52027 -2.32687
rclavicle 1.13108e-013 -6.67916e-014
rhumerus -37.9646 10.3863 -72.7149
rradius 40.1043
rwrist -8.64892
rhand -9.78495 3.65867
rfingers 7.12502
rthumb 16.1907 -25.6852
lclavicle 1.13108e-013 -6.67916e-014
lhumerus -35.4066 21.8398 80.4815
lradius 28.12
lwrist 1.6715
lhand -14.9866 0.243796
lfingers 7.12502
lthumb 11.1777 29.9261
rfemur -25.6592 -11.3888 9.45469
rtibia 75.3377
rfoot 7.61785 -5.90497
rtoes -2.50738
lfemur -3.9441 4.59258 -24.0582
ltibia 23.5321
lfoot -14.1786 3.24787
ltoes -5.50026
61
root 1.57005 17.8881 -28.3291 -1.1067 6.92878 -1.78848
lowerback 9.30863 -4.50769 -10.3581
upperback 0.578655 -6.88488 5.48602
thorax -2.6773 -3.33501 12.5116
lowerneck -24.4989 4.64986 4.10223
upperneck 30.1432 7.87522 -7.73738
head 15.1618 2.67125 -2.34205
rclavicle -8.74653e-015 1.43125e-014
rhumerus -37.8907 10.6207 -72.739
rradius 40.0995
rwrist -8.67897
rhand -9.80332 3.64962
rfingers 7.12502
rthumb 16.173 -25.6957
lclavicle -8.74653e-015 1.43125e-014
lhumerus -35.4151 21.9684 80.5738
lradius 28.2366
lwrist 1.76078
lhand -15.003 0.300951
lfingers 7.12502
lthumb 11.1619 29.9841
rfemur -25.7106 -11.3702 9.44877
rtibia 75.3438
rfoot 7.61342 -5.90616
rtoes -2.6641
lfemur -3.95518 4.42956 -24.0898
ltibia 23.4917
lfoot -14.1551 3.44059
ltoes -5.48775
62
root 1.56844 17.8887 -28.3262 -1.06319 6.98723 -1.77394
lowerback 9.32352 -4.56006 -10.3624
upperback 0.565478 -6.95668 5.5043
thorax -2.67621 -3.37084 12.5411
lowerneck -24.5446 4.91702 4.31678
upperneck 30.2502 8.24788 -7.88939
head 15.2734 2.82768 -2.36723
rclavicle 3.926e-015 7.95139e-016
rhumerus -37.8339 10.85 -72.7729
rradius 40.0981
rwrist -8.70691
rhand -9.81413 3.66012
rfingers 7.12502
rthumb 16.1626 -25.686
lclavicle 3.926e-015 7.95139e-016
lhumerus -35.4463 22.0869 80.6523
lradius 28.3631
lwrist 1.85167
lhand -15.0199 0.325153
lfingers 7.12502
lthumb 11.1456 30.0091
rfemur -25.7672 -11.3489 9.42691
rtibia 75.3487
rfoot 7.60841 -5.91525
rtoes -2.77981
lfemur -3.97053 4.27749 -24.1438
ltibia 23.4499
lfoot -14.1331 3.62778
ltoes -5.50378
63
root 1.56702 17.8892 -28.3233 -1.01424 7.03695 -1.75077
lowerback 9.34583 -4.5678 -10.3763
upperback 0.549707 -6.97116 5.4898
thorax -2.70169 -3.37507 12.5375
lowerneck -24.5591 5.07508 4.45807
upperneck 30.3203 8.452 -7.94694
head 15.3379 2.91997 -2.3743
rclavicle -2.19657e-014 8.74653e-015
rhumerus -37.8342 10.9252 -72.8184
rradius 40.1065
rwrist -8.71875
rhand -9.82785 3.68399
rfingers 7.12502
rthumb 16.1494 -25.6632
lclavicle -2.19657e-014 8.74653e-015
lhumerus -35.4443 22.0682 80.7294
lradius 28.4763
lwrist 1.94977
lhand -14.9949 0.327316
lfingers 7.12502
lthumb 11.1697 30.01
rfemur -25.8297 -11.3164 9.40347
rtibia 75.3501
rfoot 7.60658 -5.93219
rtoes -2.81188
lfemur -3.99051 4.14342 -24.2067
ltibia 23.405
lfoot -14.1049 3.80845
ltoes -5.54685
64
root 1.56568 17.8895 -28.3202 -0.961531 7.07515 -1.71747
lowerback 9.36855 -4.51047 -10.4236
upperback 0.531347 -6.90315 5.43521
thorax -2.75518 -3.33457 12.5046
lowerneck -24.4932 5.07457 4.47969
upperneck 30.3184 8.4087 -7.85097
head 15.3127 2.92069 -2.34703
rclavicle 1.24936e-013 -6.83819e-014
rhumerus -37.9203 10.7876 -72.8758
rradius 40.1265
rwrist -8.71187
rhand -9.84664 3.70136
rfingers 7.12502
rthumb 16.1313 -25.6473
lclavicle 1.24936e-013 -6.83819e-014
lhumerus -35.4041 21.8423 80.8162
lradius 28.5765
lwrist 2.05177
lhand -14.9492 0.353262
lfingers 7.12502
lthumb 11.2138 30.0336
rfemur -25.8973 -11.2734 9.37668
rtibia 75.3475
rfoot 7.5997 -5.95443
rtoes -2.71092
lfemur -4.01628 4.03027 -24.278
ltibia 23.359
lfoot -14.0712 3.97475
ltoes -5.63225
65
root 1.56478 17.8893 -28.3172 -0.901543 7.08287 -1.66575
lowerback 9.37474 -4.39968 -10.5008
upperback 0.518036 -6.76615 5.34636
thorax -2.81472 -3.25842 12.4445
lowerneck -24.3722 4.95727 4.41328
upperneck 30.2644 8.18412 -7.64388
head 15.2237 2.85374 -2.29519
rclavicle 9.27827e-014 -1.98785e-014
rhumerus -38.0602 10.493 -72.9417
rradius 40.1579
rwrist -8.69836
rhand -9.86805 3.69923
rfingers 7.12502
rthumb 16.1107 -25.6511
lclavicle 9.27827e-014 -1.98785e-014
lhumerus -35.3208 21.4635 80.9125
lradius 28.6549
lwrist 2.1538
lhand -14.9168 0.394889
lfingers 7.12502
lthumb 11.245 30.0735
rfemur -25.9806 -11.2093 9.33507
rtibia 75.3429
rfoot 7.5815 -5.972
rtoes -2.57167
lfemur -4.05254 3.9539 -24.3689
ltibia 23.3176
lfoot -14.0363 4.13083
ltoes -5.75797
66
root 1.56404 17.8889 -28.3143 -0.839912 7.05538 -1.61874
lowerback 9.3705 -4.35602 -10.5699
upperback 0.490288 -6.71637 5.31072
thorax -2.85303 -3.22781 12.4439
lowerneck -24.2311 5.032 4.51381
upperneck 30.1892 8.24689 -7.6353
head 15.1673 2.89923 -2.29537
rclavicle -5.4964e-014 1.11319e-014
rhumerus -38.1394 10.501 -73.0075
rradius 40.1888
rwrist -8.738
rhand -9.89741 3.66883
rfingers 7.12502
rthumb 16.0824 -25.6838
lclavicle -5.4964e-014 1.11319e-014
lhumerus -35.3417 21.3528 80.9704
lradius 28.7473
lwrist 2.23699
lhand -14.9283 0.426249
lfingers 7.12502
lthumb 11.2339 30.1055
rfemur -26.0789 -11.1156 9.30853
rtibia 75.3344
rfoot 7.5552 -5.99262
rtoes -2.43831
lfemur -4.09991 3.91325 -24.4513
ltibia 23.2879
lfoot -14.0005 4.27345
ltoes -5.90964
67
root 1.56354 17.8882 -28.3116 -0.77582 6.99623 -1.56711
lowerback 9.35095 -4.25421 -10.6562
upperback 0.476173 -6.58961 5.24532
thorax -2.89211 -3.15855 12.413
lowerneck -24.0871 4.97246 4.488
upperneck 30.1222 8.11544 -7.4938
head 15.0826 2.86717 -2.25886
rclavicle 1.15792e-013 -1.82882e-014
rhumerus -38.2566 10.3383 -73.0733
rradius 40.2223
rwrist -8.76141
rhand -9.91921 3.65061
rfingers 7.12502
rthumb 16.0614 -25.7037
lclavicle 1.15792e-013 -1.82882e-014
lhumerus -35.3026 21.0874 81.0489
lradius 28.808
lwrist 2.31772
lhand -14.9804 0.412972
lfingers 7.12502
lthumb 11.1837 30.0949
rfemur -26.1897 -10.9998 9.28312
rtibia 75.3226
rfoot 7.51857 -6.00567
rtoes -2.3009
lfemur -4.15707 3.91233 -24.5346
ltibia 23.2744
lfoot -13.9771 4.39197
ltoes -6.05951
68
root 1.56298 17.8873 -28.3092 -0.71157 6.91424 -1.52457
lowerback 9.32881 -4.26106 -10.7131
upperback 0.452122 -6.60322 5.25792
thorax -2.89368 -3.16351 12.4607
lowerneck -24.0104 5.2063 4.72248
upperneck 30.1067 8.4292 -7.66503
head 15.1085 3.00485 -2.30614
rclavicle 1.60519e-014 -7.95139e-014
rhumerus -38.2448 10.6042 -73.1314
rradius 40.2371
rwrist -8.82855
rhand -9.94182 3.64007
rfingers 7.12502
rthumb 16.0397 -25.716
lclavicle 1.60519e-014 -7.95139e-014
lhumerus -35.3925 21.2246 81.0832
lradius 28.9116
lwrist 2.38422
lhand -15.0493 0.39341
lfingers 7.12502
lthumb 11.1172 30.0789
rfemur -26.3087 -10.865 9.27711
rtibia 75.3043
rfoot 7.46198 -6.01794
rtoes -2.31607
lfemur -4.22265 3.94874 -24.601
ltibia 23.2768
lfoot -13.9646 4.47918
ltoes -6.18394
